<svg id="visual" viewBox="0 0 900 600" width="900" height="600" xmlns="http://www.w3.org/2000/svg" xmlns:xlink="http://www.w3.org/1999/xlink" version="1.1"><g stroke-width="1" stroke-linejoin="bevel"><path d="M404 264L606 292L492 186Z" fill="#f0f0f0" stroke="#f0f0f0"></path><path d="M404 264L547 406L606 292Z" fill="#f8f8f8" stroke="#f8f8f8"></path><path d="M606 292L552 129L492 186Z" fill="#f3f3f3" stroke="#f3f3f3"></path><path d="M245 156L284 315L404 264Z" fill="#f2f2f2" stroke="#f2f2f2"></path><path d="M404 264L400 437L547 406Z" fill="#f0f0f0" stroke="#f0f0f0"></path><path d="M284 315L352 445L400 437Z" fill="#fcfcfc" stroke="#fcfcfc"></path><path d="M404 264L284 315L400 437Z" fill="#f3f3f3" stroke="#f3f3f3"></path><path d="M245 156L404 264L492 186Z" fill="#f3f3f3" stroke="#f3f3f3"></path><path d="M711 494L734 292L606 292Z" fill="#f6f6f6" stroke="#f6f6f6"></path><path d="M606 292L784 187L552 129Z" fill="#fefefe" stroke="#fefefe"></path><path d="M454 0L245 156L492 186Z" fill="#fefefe" stroke="#fefefe"></path><path d="M563 0L454 0L552 129Z" fill="#f8f8f8" stroke="#f8f8f8"></path><path d="M552 129L454 0L492 186Z" fill="#fbfbfb" stroke="#fbfbfb"></path><path d="M547 406L711 494L606 292Z" fill="#f2f2f2" stroke="#f2f2f2"></path><path d="M567 600L711 494L547 406Z" fill="#f9f9f9" stroke="#f9f9f9"></path><path d="M457 600L547 406L400 437Z" fill="#f9f9f9" stroke="#f9f9f9"></path><path d="M749 0L563 0L552 129Z" fill="#f0f0f0" stroke="#f0f0f0"></path><path d="M900 354L784 187L734 292Z" fill="#fcfcfc" stroke="#fcfcfc"></path><path d="M734 292L784 187L606 292Z" fill="#efefef" stroke="#efefef"></path><path d="M352 445L457 600L400 437Z" fill="#f8f8f8" stroke="#f8f8f8"></path><path d="M457 600L567 600L547 406Z" fill="#f0f0f0" stroke="#f0f0f0"></path><path d="M149 0L182 181L245 156Z" fill="#fcfcfc" stroke="#fcfcfc"></path><path d="M245 156L182 181L284 315Z" fill="#f2f2f2" stroke="#f2f2f2"></path><path d="M107 422L257 600L352 445Z" fill="#f6f6f6" stroke="#f6f6f6"></path><path d="M784 187L749 0L552 129Z" fill="#efefef" stroke="#efefef"></path><path d="M454 0L254 0L245 156Z" fill="#fbfbfb" stroke="#fbfbfb"></path><path d="M107 422L352 445L284 315Z" fill="#fefefe" stroke="#fefefe"></path><path d="M352 445L257 600L457 600Z" fill="#f9f9f9" stroke="#f9f9f9"></path><path d="M0 207L103 272L182 181Z" fill="#f6f6f6" stroke="#f6f6f6"></path><path d="M182 181L103 272L284 315Z" fill="#f0f0f0" stroke="#f0f0f0"></path><path d="M711 494L900 354L734 292Z" fill="#f5f5f5" stroke="#f5f5f5"></path><path d="M784 187L900 135L749 0Z" fill="#f0f0f0" stroke="#f0f0f0"></path><path d="M567 600L776 600L711 494Z" fill="#f5f5f5" stroke="#f5f5f5"></path><path d="M711 494L900 477L900 354Z" fill="#fbfbfb" stroke="#fbfbfb"></path><path d="M103 272L107 422L284 315Z" fill="#fcfcfc" stroke="#fcfcfc"></path><path d="M900 354L900 135L784 187Z" fill="#fbfbfb" stroke="#fbfbfb"></path><path d="M776 600L900 477L711 494Z" fill="#f6f6f6" stroke="#f6f6f6"></path><path d="M254 0L149 0L245 156Z" fill="#f9f9f9" stroke="#f9f9f9"></path><path d="M107 422L139 600L257 600Z" fill="#fefefe" stroke="#fefefe"></path><path d="M900 135L900 0L749 0Z" fill="#efefef" stroke="#efefef"></path><path d="M776 600L900 600L900 477Z" fill="#efefef" stroke="#efefef"></path><path d="M103 272L0 352L107 422Z" fill="#f6f6f6" stroke="#f6f6f6"></path><path d="M107 422L0 447L139 600Z" fill="#fefefe" stroke="#fefefe"></path><path d="M0 207L0 352L103 272Z" fill="#f9f9f9" stroke="#f9f9f9"></path><path d="M149 0L0 207L182 181Z" fill="#fcfcfc" stroke="#fcfcfc"></path><path d="M0 352L0 447L107 422Z" fill="#f2f2f2" stroke="#f2f2f2"></path><path d="M149 0L0 0L0 207Z" fill="#f5f5f5" stroke="#f5f5f5"></path><path d="M0 447L0 600L139 600Z" fill="#fefefe" stroke="#fefefe"></path></g></svg>